{
	"asset":{
		"generator":"Khronos glTF Blender I/O v4.0.44",
		"version":"2.0"
	},
	"scene":0,
	"scenes":[
		{
			"name":"Scene",
			"nodes":[
				0,
				1,
				2,
				3
			]
		}
	],
	"nodes":[
		{
			"name":"Mball"
		},
		{
			"name":"Circle",
			"translation":[
				0,
				0,
				-2.97784423828125
			]
		},
		{
			"name":"Circle.001"
		},
		{
			"mesh":0,
			"name":"Sphere"
		}
	],
	"meshes":[
		{
			"name":"Sphere",
			"primitives":[
				{
					"attributes":{
						"POSITION":0,
						"NORMAL":1
					},
					"indices":2
				}
			]
		}
	],
	"accessors":[
		{
			"bufferView":0,
			"componentType":5126,
			"count":30729,
			"max":[
				0.9991506934165955,
				0.9976890087127686,
				0.9973824620246887
			],
			"min":[
				-0.9990072846412659,
				-0.9995680451393127,
				-0.9988008141517639
			],
			"type":"VEC3"
		},
		{
			"bufferView":1,
			"componentType":5126,
			"count":30729,
			"type":"VEC3"
		},
		{
			"bufferView":2,
			"componentType":5123,
			"count":56796,
			"type":"SCALAR"
		}
	],
	"bufferViews":[
		{
			"buffer":0,
			"byteLength":368748,
			"byteOffset":0,
			"target":34962
		},
		{
			"buffer":0,
			"byteLength":368748,
			"byteOffset":368748,
			"target":34962
		},
		{
			"buffer":0,
			"byteLength":113592,
			"byteOffset":737496,
			"target":34963
		}
	],
	"buffers":[
		{
			"byteLength":851088,
			"uri":"ball.bin"
		}
	]
}
